<?xml version="1.0" encoding="UTF-8" standalone="no"?>
<svg
   xmlns:dc="http://purl.org/dc/elements/1.1/"
   xmlns:cc="http://creativecommons.org/ns#"
   xmlns:rdf="http://www.w3.org/1999/02/22-rdf-syntax-ns#"
   xmlns:svg="http://www.w3.org/2000/svg"
   xmlns="http://www.w3.org/2000/svg"
   xmlns:sodipodi="http://sodipodi.sourceforge.net/DTD/sodipodi-0.dtd"
   xmlns:inkscape="http://www.inkscape.org/namespaces/inkscape"
   width="174.1236mm"
   height="177.82344mm"
   viewBox="0 0 174.1236 177.82344"
   version="1.1"
   id="svg1185"
   inkscape:version="1.0.1 (3bc2e813f5, 2020-09-07)"
   sodipodi:docname="aida trichter_fontasshape.svg">
  <defs
     id="defs1179">
    <clipPath
       clipPathUnits="userSpaceOnUse"
       id="clipPath1766">
      <path
         d="M 0,0 H 960 V 540 H 0 Z"
         id="path1764" />
    </clipPath>
    <clipPath
       clipPathUnits="userSpaceOnUse"
       id="clipPath1782">
      <path
         d="M 0,0 H 960 V 540 H 0 Z"
         id="path1780" />
    </clipPath>
    <clipPath
       clipPathUnits="userSpaceOnUse"
       id="clipPath1798">
      <path
         d="M 0,0 H 960 V 540 H 0 Z"
         id="path1796" />
    </clipPath>
    <clipPath
       clipPathUnits="userSpaceOnUse"
       id="clipPath1814">
      <path
         d="M 0,0 H 960 V 540 H 0 Z"
         id="path1812" />
    </clipPath>
    <clipPath
       clipPathUnits="userSpaceOnUse"
       id="clipPath1830">
      <path
         d="M 0,0 H 960 V 540 H 0 Z"
         id="path1828" />
    </clipPath>
    <clipPath
       clipPathUnits="userSpaceOnUse"
       id="clipPath1846">
      <path
         d="M 0,0 H 960 V 540 H 0 Z"
         id="path1844" />
    </clipPath>
    <clipPath
       clipPathUnits="userSpaceOnUse"
       id="clipPath1862">
      <path
         d="M 0,0 H 960 V 540 H 0 Z"
         id="path1860" />
    </clipPath>
    <clipPath
       clipPathUnits="userSpaceOnUse"
       id="clipPath1878">
      <path
         d="M 0,0 H 960 V 540 H 0 Z"
         id="path1876" />
    </clipPath>
    <clipPath
       clipPathUnits="userSpaceOnUse"
       id="clipPath2041">
      <path
         d="M 0,0 H 960 V 540 H 0 Z"
         id="path2039" />
    </clipPath>
    <clipPath
       clipPathUnits="userSpaceOnUse"
       id="clipPath2057">
      <path
         d="M 0,0 H 960 V 540 H 0 Z"
         id="path2055" />
    </clipPath>
    <clipPath
       clipPathUnits="userSpaceOnUse"
       id="clipPath2073">
      <path
         d="M 0,0 H 960 V 540 H 0 Z"
         id="path2071" />
    </clipPath>
    <clipPath
       clipPathUnits="userSpaceOnUse"
       id="clipPath2089">
      <path
         d="M 0,0 H 960 V 540 H 0 Z"
         id="path2087" />
    </clipPath>
    <clipPath
       clipPathUnits="userSpaceOnUse"
       id="clipPath2105">
      <path
         d="M 0,0 H 960 V 540 H 0 Z"
         id="path2103" />
    </clipPath>
    <clipPath
       clipPathUnits="userSpaceOnUse"
       id="clipPath2121">
      <path
         d="M 0,0 H 960 V 540 H 0 Z"
         id="path2119" />
    </clipPath>
    <clipPath
       clipPathUnits="userSpaceOnUse"
       id="clipPath2137">
      <path
         d="M 0,0 H 960 V 540 H 0 Z"
         id="path2135" />
    </clipPath>
    <clipPath
       clipPathUnits="userSpaceOnUse"
       id="clipPath2153">
      <path
         d="M 0,0 H 960 V 540 H 0 Z"
         id="path2151" />
    </clipPath>
  </defs>
  <sodipodi:namedview
     id="base"
     pagecolor="#ffffff"
     bordercolor="#666666"
     borderopacity="1.0"
     inkscape:pageopacity="0.0"
     inkscape:pageshadow="2"
     inkscape:zoom="0.35"
     inkscape:cx="-432.11957"
     inkscape:cy="763.99781"
     inkscape:document-units="mm"
     inkscape:current-layer="layer1"
     inkscape:document-rotation="0"
     showgrid="false"
     fit-margin-left="5"
     fit-margin-top="5"
     fit-margin-right="5"
     fit-margin-bottom="5"
     inkscape:window-width="1920"
     inkscape:window-height="1017"
     inkscape:window-x="-8"
     inkscape:window-y="-8"
     inkscape:window-maximized="1" />
  <metadata
     id="metadata1182">
    <rdf:RDF>
      <cc:Work
         rdf:about="">
        <dc:format>image/svg+xml</dc:format>
        <dc:type
           rdf:resource="http://purl.org/dc/dcmitype/StillImage" />
        <dc:title></dc:title>
        <cc:license
           rdf:resource="http://creativecommons.org/publicdomain/zero/1.0/" />
      </cc:Work>
      <cc:License
         rdf:about="http://creativecommons.org/publicdomain/zero/1.0/">
        <cc:permits
           rdf:resource="http://creativecommons.org/ns#Reproduction" />
        <cc:permits
           rdf:resource="http://creativecommons.org/ns#Distribution" />
        <cc:permits
           rdf:resource="http://creativecommons.org/ns#DerivativeWorks" />
      </cc:License>
    </rdf:RDF>
  </metadata>
  <g
     inkscape:label="Ebene 1"
     inkscape:groupmode="layer"
     id="layer1"
     transform="translate(-14.088253,-6.7463284)">
    <g
       id="g2384"
       transform="translate(-95.476786,-231.32143)">
      <g
         id="g2035"
         transform="matrix(0.35277777,0,0,-0.35277777,34.860589,424.52606)">
        <g
           id="g2037"
           clip-path="url(#clipPath2041)">
          <g
             id="g2043"
             transform="translate(387.03,153.87)">
            <path
               d="m 0,0 21.881,-101.973 c 20.193,-16.996 79.085,-16.996 99.278,0 L 143.04,0 Z"
               style="fill:#4472c4;fill-opacity:1;fill-rule:evenodd;stroke:none"
               id="path2045" />
          </g>
          <g
             id="g2047"
             transform="translate(387.03,153.87)">
            <path
               d="m 0,0 21.881,-101.973 c 20.193,-16.996 79.085,-16.996 99.278,0 L 143.04,0 Z"
               style="fill:none;stroke:#2f528f;stroke-width:1;stroke-linecap:butt;stroke-linejoin:miter;stroke-miterlimit:8;stroke-dasharray:none;stroke-opacity:1"
               id="path2049" />
          </g>
        </g>
      </g>
      <g
         id="g2051"
         transform="matrix(0.35277777,0,0,-0.35277777,34.860589,424.52606)">
        <g
           id="g2053"
           clip-path="url(#clipPath2057)">
          <g
             id="g2059"
             transform="translate(387.03,154.65)">
            <path
               d="m 0,0 c 0,7.92 32.021,14.34 71.52,14.34 39.499,0 71.52,-6.42 71.52,-14.34 0,-7.92 -32.021,-14.34 -71.52,-14.34 C 32.021,-14.34 0,-7.92 0,0"
               style="fill:#203864;fill-opacity:1;fill-rule:evenodd;stroke:none"
               id="path2061" />
          </g>
          <g
             id="g2063"
             transform="translate(387.03,154.65)">
            <path
               d="m 0,0 c 0,7.92 32.021,14.34 71.52,14.34 39.499,0 71.52,-6.42 71.52,-14.34 0,-7.92 -32.021,-14.34 -71.52,-14.34 C 32.021,-14.34 0,-7.92 0,0 Z"
               style="fill:none;stroke:#2f528f;stroke-width:1;stroke-linecap:butt;stroke-linejoin:miter;stroke-miterlimit:8;stroke-dasharray:none;stroke-opacity:1"
               id="path2065" />
          </g>
        </g>
      </g>
    </g>
    <g
       id="g2370"
       transform="translate(-96.386952,-231.46958)">
      <g
         id="g2067"
         transform="matrix(0.35277777,0,0,-0.35277777,34.860589,424.52606)">
        <g
           id="g2069"
           clip-path="url(#clipPath2073)">
          <g
             id="g2075"
             transform="translate(353.91,268.95)">
            <path
               d="m 0,0 32.802,-102.027 c 30.273,-17.004 118.563,-17.004 148.836,0 L 214.44,0 Z"
               style="fill:#4472c4;fill-opacity:1;fill-rule:evenodd;stroke:none"
               id="path2077" />
          </g>
          <g
             id="g2079"
             transform="translate(353.91,268.95)">
            <path
               d="m 0,0 32.802,-102.027 c 30.273,-17.004 118.563,-17.004 148.836,0 L 214.44,0 Z"
               style="fill:none;stroke:#2f528f;stroke-width:1;stroke-linecap:butt;stroke-linejoin:miter;stroke-miterlimit:8;stroke-dasharray:none;stroke-opacity:1"
               id="path2081" />
          </g>
        </g>
      </g>
      <g
         id="g2083"
         transform="matrix(0.35277777,0,0,-0.35277777,34.860589,424.52606)">
        <g
           id="g2085"
           clip-path="url(#clipPath2089)">
          <g
             id="g2091"
             transform="translate(353.91,268.95)">
            <path
               d="m 0,0 c 0,7.92 48.004,14.34 107.22,14.34 59.216,0 107.22,-6.42 107.22,-14.34 0,-7.92 -48.004,-14.34 -107.22,-14.34 C 48.004,-14.34 0,-7.92 0,0"
               style="fill:#203864;fill-opacity:1;fill-rule:evenodd;stroke:none"
               id="path2093" />
          </g>
          <g
             id="g2095"
             transform="translate(353.91,268.95)">
            <path
               d="m 0,0 c 0,7.92 48.004,14.34 107.22,14.34 59.216,0 107.22,-6.42 107.22,-14.34 0,-7.92 -48.004,-14.34 -107.22,-14.34 C 48.004,-14.34 0,-7.92 0,0 Z"
               style="fill:none;stroke:#2f528f;stroke-width:1;stroke-linecap:butt;stroke-linejoin:miter;stroke-miterlimit:8;stroke-dasharray:none;stroke-opacity:1"
               id="path2097" />
          </g>
        </g>
      </g>
    </g>
    <g
       id="g2356"
       transform="translate(-96.492786,-231.21559)">
      <g
         id="g2099"
         transform="matrix(0.35277777,0,0,-0.35277777,34.860589,424.52606)">
        <g
           id="g2101"
           clip-path="url(#clipPath2105)">
          <g
             id="g2107"
             transform="translate(305.43,384.75)">
            <path
               d="m 0,0 47.726,-102.027 c 44.046,-17.004 172.502,-17.004 216.548,0 L 312,0 Z"
               style="fill:#4472c4;fill-opacity:1;fill-rule:evenodd;stroke:none"
               id="path2109" />
          </g>
          <g
             id="g2111"
             transform="translate(305.43,384.75)">
            <path
               d="m 0,0 47.726,-102.027 c 44.046,-17.004 172.502,-17.004 216.548,0 L 312,0 Z"
               style="fill:none;stroke:#2f528f;stroke-width:1;stroke-linecap:butt;stroke-linejoin:miter;stroke-miterlimit:8;stroke-dasharray:none;stroke-opacity:1"
               id="path2113" />
          </g>
        </g>
      </g>
      <g
         id="g2115"
         transform="matrix(0.35277777,0,0,-0.35277777,34.860589,424.52606)">
        <g
           id="g2117"
           clip-path="url(#clipPath2121)">
          <g
             id="g2123"
             transform="translate(305.43,384.75)">
            <path
               d="M 0,0 C 0,7.92 69.844,14.34 156,14.34 242.156,14.34 312,7.92 312,0 312,-7.92 242.156,-14.34 156,-14.34 69.844,-14.34 0,-7.92 0,0"
               style="fill:#203864;fill-opacity:1;fill-rule:evenodd;stroke:none"
               id="path2125" />
          </g>
          <g
             id="g2127"
             transform="translate(305.43,384.75)">
            <path
               d="M 0,0 C 0,7.92 69.844,14.34 156,14.34 242.156,14.34 312,7.92 312,0 312,-7.92 242.156,-14.34 156,-14.34 69.844,-14.34 0,-7.92 0,0 Z"
               style="fill:none;stroke:#2f528f;stroke-width:1;stroke-linecap:butt;stroke-linejoin:miter;stroke-miterlimit:8;stroke-dasharray:none;stroke-opacity:1"
               id="path2129" />
          </g>
        </g>
      </g>
    </g>
    <g
       id="g2342"
       transform="translate(-96.005952,-231.32143)">
      <g
         id="g2131"
         transform="matrix(0.35277777,0,0,-0.35277777,34.860589,424.52606)">
        <g
           id="g2133"
           clip-path="url(#clipPath2137)">
          <g
             id="g2139"
             transform="translate(228.39,499.53)">
            <path
               d="m 0,0 70.873,-102.027 c 65.408,-17.004 256.166,-17.004 321.574,0 L 463.32,0 Z"
               style="fill:#4472c4;fill-opacity:1;fill-rule:evenodd;stroke:none"
               id="path2141" />
          </g>
          <g
             id="g2143"
             transform="translate(228.39,499.53)">
            <path
               d="m 0,0 70.873,-102.027 c 65.408,-17.004 256.166,-17.004 321.574,0 L 463.32,0 Z"
               style="fill:none;stroke:#2f528f;stroke-width:1;stroke-linecap:butt;stroke-linejoin:miter;stroke-miterlimit:8;stroke-dasharray:none;stroke-opacity:1"
               id="path2145" />
          </g>
        </g>
      </g>
      <g
         id="g2147"
         transform="matrix(0.35277777,0,0,-0.35277777,34.860589,424.52606)">
        <g
           id="g2149"
           clip-path="url(#clipPath2153)">
          <g
             id="g2155"
             transform="translate(228.39,499.53)">
            <path
               d="M 0,0 C 0,7.92 103.718,14.34 231.66,14.34 359.602,14.34 463.32,7.92 463.32,0 463.32,-7.92 359.602,-14.34 231.66,-14.34 103.718,-14.34 0,-7.92 0,0"
               style="fill:#203864;fill-opacity:1;fill-rule:evenodd;stroke:none"
               id="path2157" />
          </g>
          <g
             id="g2159"
             transform="translate(228.39,499.53)">
            <path
               d="M 0,0 C 0,7.92 103.718,14.34 231.66,14.34 359.602,14.34 463.32,7.92 463.32,0 463.32,-7.92 359.602,-14.34 231.66,-14.34 103.718,-14.34 0,-7.92 0,0 Z"
               style="fill:none;stroke:#2f528f;stroke-width:1;stroke-linecap:butt;stroke-linejoin:miter;stroke-miterlimit:8;stroke-dasharray:none;stroke-opacity:1"
               id="path2161" />
          </g>
        </g>
      </g>
    </g>
    <g
       aria-label="I"
       id="text2320"
       style="font-variant:normal;font-weight:bold;font-stretch:normal;font-size:12.7px;font-family:Arial;-inkscape-font-specification:Arial-BoldMT;writing-mode:lr-tb;fill:#ffffff;fill-opacity:1;fill-rule:nonzero;stroke:none;stroke-width:0.352778">
      <path
         d="m 100.23227,83.431534 v -9.090918 h 1.83555 v 9.090918 z"
         style="text-align:center;text-anchor:middle;stroke-width:0.352778"
         id="path2386" />
    </g>
    <g
       aria-label="A"
       id="text2324"
       style="font-variant:normal;font-weight:bold;font-stretch:normal;font-size:12.7px;font-family:Arial;-inkscape-font-specification:Arial-BoldMT;writing-mode:lr-tb;fill:#ffffff;fill-opacity:1;fill-rule:nonzero;stroke:none;stroke-width:0.352778">
      <path
         d="m 105.71101,42.106152 h -1.99678 l -0.79375,-2.064991 h -3.633886 l -0.750342,2.064991 h -1.947168 l 3.540866,-9.090918 h 1.94097 z m -3.37964,-3.59668 -1.25264,-3.373438 -1.22783,3.373438 z"
         style="text-align:center;text-anchor:middle;stroke-width:0.352778"
         id="path2389" />
    </g>
    <g
       aria-label="D"
       id="text2328"
       style="font-variant:normal;font-weight:bold;font-stretch:normal;font-size:12.7px;font-family:Arial;-inkscape-font-specification:Arial-BoldMT;writing-mode:lr-tb;fill:#ffffff;fill-opacity:1;fill-rule:nonzero;stroke:none;stroke-width:0.352778">
      <path
         d="m 97.339438,115.66602 h 3.354832 q 1.13482,0 1.73013,0.17364 0.79995,0.23564 1.37046,0.83716 0.57051,0.60151 0.86816,1.47587 0.29766,0.86817 0.29766,2.14561 0,1.12241 -0.27905,1.93477 -0.34107,0.99218 -0.97359,1.6061 -0.47749,0.46509 -1.28984,0.72554 -0.60772,0.19223 -1.62471,0.19223 h -3.454052 z m 1.835547,1.5379 v 6.02133 h 1.370455 q 0.76895,0 1.11001,-0.0868 0.44649,-0.11162 0.73794,-0.37827 0.29766,-0.26665 0.48369,-0.87437 0.18604,-0.61392 0.18604,-1.66811 0,-1.0542 -0.18604,-1.61851 -0.18603,-0.56431 -0.52089,-0.88057 -0.33487,-0.31626 -0.84956,-0.42788 -0.38448,-0.0868 -1.506889,-0.0868 z"
         style="text-align:center;text-anchor:middle;stroke-width:0.352778"
         id="path2392" />
    </g>
    <g
       aria-label="A"
       id="text2306"
       style="font-variant:normal;font-weight:bold;font-stretch:normal;font-size:12.7px;font-family:Arial;-inkscape-font-specification:Arial-BoldMT;writing-mode:lr-tb;fill:#ffffff;fill-opacity:1;fill-rule:nonzero;stroke:none;stroke-width:0.352778">
      <path
         d="m 105.71101,166.08235 h -1.99678 l -0.79375,-2.06499 h -3.633886 l -0.750342,2.06499 h -1.947168 l 3.540866,-9.09092 h 1.94097 z m -3.37964,-3.59668 -1.25264,-3.37344 -1.22783,3.37344 z"
         style="text-align:center;text-anchor:middle;stroke-width:0.352778"
         id="path2395" />
    </g>
  </g>
</svg>
